<svg xmlns="http://www.w3.org/2000/svg" xmlns:xlink="http://www.w3.org/1999/xlink" width="1891" zoomAndPan="magnify" viewBox="0 0 1418.25 615.000004" height="820" preserveAspectRatio="xMidYMid meet" version="1.2"><defs><clipPath id="e31ea0cd39"><path d="M 335.085938 207.421875 L 459.382812 207.421875 L 459.382812 406.597656 L 335.085938 406.597656 Z M 335.085938 207.421875 "/></clipPath><clipPath id="63fee269fb"><path d="M 30 362 L 310.816406 362 L 310.816406 406 L 30 406 Z M 30 362 "/></clipPath></defs><g id="6832d27361"><path style=" stroke:none;fill-rule:nonzero;fill:#2866ed;fill-opacity:1;" d="M 566.097656 252.816406 C 574.738281 256.652344 582.160156 262.699219 587.921875 270.1875 C 593.605469 278.179688 597.035156 287.609375 598.085938 297.339844 C 598.929688 308.707031 597.359375 319.339844 592.566406 329.769531 C 588.746094 337.21875 583.441406 344.070312 576.699219 349.085938 C 568.097656 354.589844 559.050781 358.855469 548.71875 359.554688 C 537.316406 360.039062 527.140625 358.78125 516.671875 353.917969 C 511.199219 350.972656 506.605469 347.222656 502.183594 342.875 L 500.875 341.59375 C 494.644531 335 490.722656 326.410156 488.453125 317.726562 C 486.160156 307.628906 486.308594 297.644531 489.074219 287.679688 C 492.179688 277.726562 497.4375 269.40625 504.945312 262.152344 C 513.011719 255.238281 522.246094 251.195312 532.542969 249.042969 C 543.949219 247.121094 555.429688 248.378906 566.097656 252.816406 M 528.917969 275.003906 C 525.09375 277.082031 522.054688 279.351562 519.433594 282.851562 C 516.160156 288.269531 513.976562 293.6875 513.679688 300.042969 C 513.542969 308.085938 514.011719 314.902344 517.738281 322.191406 C 520.1875 326.378906 522.8125 329.40625 527.023438 331.835938 C 532.132812 334.667969 537.332031 335.90625 543.160156 336.027344 C 548.898438 335.8125 553.753906 334.695312 558.761719 331.835938 C 563.480469 328.566406 566.625 324.570312 569.109375 319.417969 C 572.152344 312.003906 572.601562 304.238281 571.550781 296.320312 C 570.367188 290.480469 568.191406 285.527344 564.609375 280.761719 C 561.316406 277.09375 557.15625 274.835938 552.550781 273.191406 C 544.382812 271.136719 536.621094 271.480469 528.917969 275.003906 M 1023.789062 272.242188 C 1029.589844 274.304688 1033.886719 277.472656 1038.0625 281.941406 L 1038.96875 282.851562 L 1039.660156 282.851562 L 1040.347656 272.5 L 1065.878906 272.5 L 1065.878906 358.746094 L 1040.347656 358.746094 L 1039.660156 347.707031 L 1036.210938 351.15625 C 1031.433594 355.207031 1026.453125 357.984375 1020.339844 359.4375 C 1013.390625 360.128906 1006.15625 360.007812 999.5625 357.585938 C 992.296875 354.273438 987.335938 349.726562 982.589844 343.359375 C 978.265625 336.8125 975.878906 328.410156 975.398438 320.632812 C 974.980469 310.449219 975.625 300.996094 980.175781 291.746094 C 983.613281 285.203125 987.578125 280.421875 993.746094 276.320312 C 1002.882812 270.8125 1013.496094 269.339844 1023.789062 272.242188 M 1011.371094 295.960938 C 1007.859375 298.464844 1005.140625 301.113281 1003.089844 304.929688 C 1001.375 309.898438 1001.257812 314.890625 1001.710938 320.109375 C 1002.582031 324.207031 1004.101562 327.511719 1006.757812 330.761719 C 1008.988281 333.105469 1011.234375 334.558594 1014.128906 335.976562 L 1015.511719 336.667969 C 1020.335938 337.089844 1025.167969 337.351562 1029.65625 335.289062 C 1032.964844 333.332031 1035.46875 330.898438 1037.589844 327.699219 C 1039.742188 323.460938 1040.59375 318.875 1040.492188 314.128906 C 1040.125 310.007812 1039.304688 306.085938 1037.285156 302.449219 C 1034.914062 299.148438 1032.359375 297.050781 1028.765625 295.183594 C 1023.074219 292.933594 1016.859375 293.402344 1011.371094 295.960938 M 1250.785156 244.214844 L 1277.003906 244.214844 L 1277.003906 306.308594 L 1278.382812 306.308594 L 1278.886719 305.195312 C 1280.003906 303.097656 1281.351562 301.203125 1282.738281 299.28125 L 1283.644531 298.019531 C 1286.484375 294.085938 1289.429688 290.238281 1292.386719 286.394531 C 1295.886719 281.851562 1299.347656 277.277344 1302.53125 272.5 C 1303.929688 272.253906 1303.929688 272.253906 1305.664062 272.265625 L 1307.632812 272.265625 L 1309.761719 272.300781 L 1311.933594 272.308594 C 1314.234375 272.320312 1316.53125 272.34375 1318.832031 272.371094 C 1320.386719 272.382812 1321.945312 272.390625 1323.5 272.398438 C 1327.320312 272.425781 1331.140625 272.457031 1334.960938 272.5 C 1332.070312 276.914062 1332.070312 276.914062 1330.386719 278.820312 L 1329.398438 279.949219 L 1328.363281 281.125 C 1325.519531 284.390625 1322.773438 287.707031 1320.125 291.128906 C 1317.539062 294.464844 1314.867188 297.726562 1312.105469 300.917969 C 1309.550781 303.875 1307.007812 306.835938 1304.515625 309.84375 L 1303.042969 311.617188 C 1301.972656 313.03125 1301.183594 314.355469 1300.460938 315.96875 C 1303.847656 320.164062 1307.296875 324.304688 1310.8125 328.386719 C 1313.777344 331.832031 1316.679688 335.316406 1319.542969 338.84375 C 1321.433594 341.136719 1323.363281 343.386719 1325.300781 345.636719 C 1332.796875 354.34375 1332.796875 354.34375 1335.648438 358.054688 L 1335.648438 358.746094 C 1307.785156 360.855469 1307.785156 360.855469 1300.894531 357.671875 C 1297.628906 354.910156 1296.015625 351.402344 1294.417969 347.503906 C 1292.9375 344.269531 1290.703125 341.609375 1288.515625 338.824219 C 1284.777344 333.828125 1281.226562 328.703125 1277.695312 323.558594 L 1277.671875 324.832031 C 1277.597656 329.195312 1277.519531 333.5625 1277.4375 337.925781 C 1277.40625 339.554688 1277.378906 341.1875 1277.351562 342.816406 C 1277.308594 345.15625 1277.265625 347.496094 1277.222656 349.835938 L 1277.1875 352.054688 L 1277.144531 354.105469 L 1277.113281 355.917969 C 1277.003906 357.367188 1277.003906 357.367188 1276.3125 358.746094 L 1250.785156 358.746094 Z M 613.265625 244.214844 L 639.484375 244.214844 L 639.484375 306.308594 C 641.6875 304.105469 643.527344 302.214844 645.371094 299.789062 L 646.707031 298.035156 L 648.109375 296.175781 L 649.570312 294.25 C 653.136719 289.527344 656.636719 284.753906 660.070312 279.9375 L 661.101562 278.496094 L 661.980469 277.253906 L 662.945312 275.953125 L 663.988281 274.089844 L 665.703125 272.5 C 668.109375 272.011719 670.472656 272.101562 672.914062 272.164062 L 675.039062 272.179688 C 677.273438 272.199219 679.507812 272.242188 681.746094 272.285156 C 683.261719 272.304688 684.777344 272.320312 686.292969 272.332031 C 690.011719 272.371094 693.726562 272.429688 697.441406 272.5 C 695.515625 275.445312 693.402344 278.25 691.101562 280.910156 C 690.425781 281.703125 689.75 282.492188 689.074219 283.285156 L 688.058594 284.472656 C 685.621094 287.34375 683.257812 290.277344 680.882812 293.199219 C 677.546875 297.304688 674.179688 301.378906 670.75 305.402344 C 668.019531 308.609375 665.417969 311.871094 662.945312 315.277344 C 665.027344 318.578125 667.386719 321.460938 669.972656 324.378906 C 673.152344 327.996094 676.257812 331.679688 679.289062 335.417969 C 681.167969 337.703125 683.089844 339.945312 685.023438 342.1875 C 694.363281 353.042969 694.363281 353.042969 698.132812 358.746094 C 693.710938 358.921875 689.296875 359.042969 684.875 359.125 C 683.371094 359.160156 681.871094 359.207031 680.367188 359.265625 C 670.433594 359.652344 670.433594 359.652344 666.394531 358.746094 C 664.101562 357.230469 663.085938 356.007812 661.734375 353.644531 L 660.875 351.847656 C 660.316406 351.046875 659.738281 350.265625 659.140625 349.496094 L 657.640625 347.363281 C 657.058594 346.539062 656.476562 345.71875 655.894531 344.898438 L 654.96875 343.585938 C 653.097656 340.953125 651.207031 338.335938 649.316406 335.71875 L 648.207031 334.179688 C 646.0625 331.203125 643.875 328.273438 641.617188 325.382812 L 640.863281 324.25 L 640.863281 322.867188 L 639.484375 322.867188 L 639.484375 358.746094 L 613.265625 358.746094 Z M 613.265625 244.214844 "/><path style=" stroke:none;fill-rule:nonzero;fill:#2866ed;fill-opacity:1;" d="M 1211.820312 274.921875 C 1218.699219 278.371094 1224.433594 283.199219 1228.988281 289.414062 C 1233.804688 296.9375 1235.757812 304.679688 1236.488281 313.46875 C 1236.722656 321.402344 1235.171875 329.449219 1231.898438 336.6875 C 1227.894531 344.007812 1222.707031 349.492188 1215.597656 353.917969 C 1206.988281 358.78125 1198.375 359.773438 1188.660156 359.726562 C 1180.652344 359.535156 1173.375 357.964844 1166.398438 353.839844 C 1160.414062 349.644531 1154.96875 344.5 1151.433594 338.046875 C 1147.03125 328.519531 1145.886719 319.457031 1146.601562 309.070312 C 1147.042969 305.976562 1147.726562 303.074219 1148.671875 300.101562 L 1149.230469 298.308594 C 1150.972656 293.421875 1153.730469 288.976562 1156.953125 284.921875 L 1158.332031 284.921875 L 1159.019531 282.851562 L 1160.402344 282.851562 L 1160.402344 281.472656 C 1161.8125 280.402344 1163.261719 279.398438 1164.757812 278.453125 L 1166.085938 277.605469 C 1169.785156 275.320312 1173.453125 273.667969 1177.648438 272.5 L 1179.167969 272.035156 C 1189.8125 269.304688 1201.8125 270.644531 1211.820312 274.921875 M 1179.589844 297.382812 C 1176.441406 300.195312 1174.820312 304.449219 1173.511719 308.378906 C 1173.316406 310.703125 1173.320312 313.03125 1173.296875 315.363281 L 1173.234375 317.273438 C 1173.199219 321.222656 1173.761719 324.167969 1175.488281 327.726562 C 1177.355469 330.957031 1179.589844 333.609375 1182.78125 335.589844 C 1187.015625 337.472656 1191.765625 337.136719 1196.277344 336.667969 C 1199.238281 335.960938 1201.035156 334.589844 1203.28125 332.585938 C 1205.660156 330.15625 1207.542969 327.765625 1208.699219 324.550781 C 1209.980469 319.226562 1210.046875 313.195312 1209.015625 307.816406 C 1207.753906 303.714844 1205.730469 300.527344 1202.617188 297.554688 C 1200.335938 295.898438 1198.332031 294.542969 1195.589844 293.890625 C 1189.402344 293.265625 1184.78125 294.023438 1179.589844 297.382812 "/><path style=" stroke:none;fill-rule:nonzero;fill:#2866ed;fill-opacity:1;" d="M 768.871094 274.921875 C 775.722656 278.359375 781.460938 283.183594 786.03125 289.347656 C 790.96875 297.335938 792.9375 305.761719 793.320312 315.007812 C 793.503906 323.851562 791.246094 331.695312 787.09375 339.425781 C 783.066406 346.011719 777.695312 351.191406 770.9375 354.894531 C 761.675781 359.585938 752.167969 360.0625 741.960938 359.566406 C 738.4375 359.300781 735.25 358.5625 731.9375 357.367188 L 730.207031 356.832031 C 723.960938 354.695312 718.527344 350.515625 714.085938 345.679688 C 708.636719 338.921875 705.636719 331.550781 703.972656 323.066406 C 703.796875 321.625 703.6875 320.179688 703.652344 318.726562 L 703.570312 317.316406 C 703.273438 308.292969 705.328125 299.808594 709.5625 291.859375 C 713.359375 285.527344 718.109375 280.492188 724.578125 276.878906 C 738.65625 269.789062 754.214844 268.65625 768.871094 274.921875 M 736.640625 297.425781 C 734.144531 299.667969 732.609375 302.585938 731.25 305.621094 C 729.539062 311.441406 729.972656 318.652344 730.957031 324.578125 C 732.058594 328.132812 733.671875 330.375 736.382812 332.914062 C 738.476562 334.667969 740.355469 335.875 742.976562 336.667969 C 746.964844 337.050781 751.230469 337.28125 755.109375 336.144531 C 756.421875 335.507812 757.667969 334.761719 758.847656 333.90625 L 760.703125 332.742188 C 763.453125 329.992188 765.210938 326.546875 766.4375 322.867188 C 766.9375 316.882812 767.429688 309.902344 765.230469 304.238281 C 764.492188 302.746094 764.492188 302.746094 763.675781 301.480469 L 762.46875 299.539062 C 760.070312 297.207031 757.292969 295.207031 754.09375 294.148438 C 747.59375 292.992188 742.089844 293.792969 736.640625 297.425781 M 946.644531 274.65625 C 951.789062 277.460938 956.085938 281.3125 959.238281 286.257812 C 961.703125 290.742188 963.074219 294.976562 963.074219 300.101562 L 939.617188 300.101562 L 936.164062 293.890625 C 934.144531 292.3125 932.429688 291.652344 929.957031 291.128906 C 926.683594 290.84375 923.4375 290.789062 920.296875 291.863281 L 918.226562 293.199219 C 916.96875 295.476562 916.96875 295.476562 916.847656 298.03125 C 917.480469 299.988281 917.480469 299.988281 918.917969 301.480469 C 921.441406 303.210938 923.8125 304.070312 926.765625 304.835938 L 929.34375 305.523438 C 930.238281 305.757812 931.132812 305.992188 932.027344 306.222656 C 950.976562 311.160156 950.976562 311.160156 956.863281 316.660156 C 959.832031 319.59375 961.6875 322.378906 963.074219 326.316406 C 964.210938 331.183594 964.257812 336.09375 962.988281 340.9375 C 961.464844 345.425781 958.757812 348.78125 955.3125 351.976562 C 950.082031 356.1875 944.074219 358.210938 937.546875 359.4375 C 934.664062 359.699219 931.816406 359.726562 928.921875 359.695312 L 926.75 359.71875 C 918.671875 359.6875 911.6875 357.683594 904.613281 353.878906 C 900.035156 351.15625 896.65625 348.085938 893.820312 343.566406 C 891.84375 339.992188 889.980469 336.523438 889.890625 332.367188 L 889.9375 330.457031 C 893.410156 330.320312 896.886719 330.21875 900.359375 330.152344 C 901.542969 330.125 902.722656 330.089844 903.90625 330.039062 C 907.59375 329.894531 911.128906 329.828125 914.777344 330.457031 C 916.28125 331.652344 916.28125 331.652344 917.191406 333.136719 C 917.554688 334.078125 917.898438 335.023438 918.226562 335.976562 C 920.175781 337.976562 921.578125 338.703125 924.222656 339.644531 C 927.574219 340.347656 930.761719 340.183594 934.097656 339.425781 C 936.585938 338.457031 936.585938 338.457031 938.234375 336.667969 C 939.152344 334.320312 939.152344 334.320312 938.925781 331.835938 C 937.851562 329.980469 937.851562 329.980469 936.164062 328.386719 C 934.140625 327.371094 934.140625 327.371094 931.765625 326.707031 L 930.429688 326.285156 C 927.671875 325.433594 924.894531 324.691406 922.101562 323.972656 C 904.5 319.425781 904.5 319.425781 897.785156 313.339844 C 895.148438 310.367188 893.519531 307.449219 892.699219 303.550781 C 892.207031 298.515625 892.050781 293.535156 893.820312 288.714844 C 896.125 283.910156 899.125 279.972656 903.511719 276.902344 C 916.203125 269.386719 933.199219 268.652344 946.644531 274.65625 M 856.132812 273.191406 C 861.820312 275.585938 866.691406 278.1875 870.507812 283.105469 C 873.699219 287.75 875.574219 292.542969 876.828125 298.03125 L 876.828125 300.101562 C 873.554688 300.234375 870.277344 300.335938 866.996094 300.402344 C 865.882812 300.429688 864.769531 300.46875 863.65625 300.515625 C 860.15625 300.664062 856.824219 300.722656 853.371094 300.101562 C 851.410156 298.496094 850.808594 296.890625 849.921875 294.578125 C 848.671875 293.117188 847.855469 292.511719 846.082031 291.691406 C 842.496094 290.84375 838.949219 290.59375 835.34375 291.5 C 833.519531 292.195312 832.199219 292.9375 830.949219 294.449219 C 830.46875 296.546875 830.722656 298.035156 831.292969 300.101562 C 833.207031 302.445312 835.546875 303.207031 838.3125 304.261719 C 841.515625 305.359375 844.777344 306.15625 848.066406 306.957031 C 865.019531 311.257812 865.019531 311.257812 871.308594 317.347656 C 874.019531 320.15625 875.617188 322.878906 876.742188 326.621094 C 877.839844 331.355469 877.964844 335.402344 876.742188 340.117188 C 875.304688 344.417969 873.191406 347.953125 869.925781 351.117188 C 864.984375 355.210938 859.347656 357.851562 853.082031 359.167969 C 849.664062 359.683594 846.253906 359.664062 842.804688 359.652344 L 840.609375 359.6875 C 832.464844 359.691406 825.570312 357.691406 818.414062 353.925781 C 813.089844 350.714844 808.914062 346.75 805.894531 341.292969 C 804.46875 338.046875 803.519531 334.65625 803.003906 331.148438 L 803.695312 330.457031 C 805.535156 330.394531 807.355469 330.378906 809.195312 330.390625 L 810.863281 330.394531 C 812.628906 330.398438 814.390625 330.40625 816.15625 330.414062 C 817.351562 330.417969 818.542969 330.421875 819.738281 330.425781 C 822.667969 330.433594 825.601562 330.441406 828.53125 330.457031 L 829.09375 331.621094 L 829.835938 333.136719 L 830.570312 334.644531 C 831.257812 336.050781 831.257812 336.050781 832.503906 337.246094 C 835.757812 339.222656 838.6875 340.019531 842.5 340.21875 C 845.40625 340.066406 848.003906 339.347656 850.613281 338.046875 L 851.992188 336.667969 C 852.367188 335.269531 852.367188 335.269531 852.421875 333.691406 L 852.578125 332.105469 L 851.992188 330.457031 C 847.234375 326.539062 841.359375 325.382812 835.519531 323.859375 C 817.332031 319.054688 817.332031 319.054688 810.59375 312.519531 C 808.300781 309.847656 807.035156 307.132812 806.195312 303.722656 C 805.359375 298.492188 805.773438 293.300781 807.488281 288.285156 C 809.53125 283.6875 812.917969 280.121094 816.738281 276.917969 C 827.066406 269.765625 844.558594 268.785156 856.132812 273.191406 M 1139.011719 271.8125 L 1139.011719 299.410156 C 1132.5 299.625 1132.5 299.625 1130.488281 299.675781 C 1126.390625 299.847656 1122.78125 300.53125 1119.003906 302.167969 C 1116.941406 303.515625 1115.753906 304.644531 1114.347656 306.652344 C 1112.855469 309.640625 1112.699219 312.199219 1112.664062 315.523438 L 1112.628906 318.21875 L 1112.613281 319.652344 C 1112.601562 321.136719 1112.582031 322.621094 1112.5625 324.105469 C 1112.519531 327.257812 1112.484375 330.410156 1112.449219 333.5625 C 1112.410156 337.214844 1112.363281 340.867188 1112.316406 344.523438 C 1112.300781 345.984375 1112.285156 347.445312 1112.269531 348.90625 L 1112.234375 351.601562 L 1112.207031 353.96875 C 1112.105469 355.984375 1112.105469 355.984375 1111.414062 358.746094 L 1085.886719 358.746094 L 1085.886719 272.5 L 1111.414062 272.5 C 1112.507812 274.691406 1112.367188 277.078125 1112.492188 279.488281 L 1112.582031 281.0625 C 1112.65625 282.347656 1112.726562 283.636719 1112.792969 284.921875 L 1113.609375 283.882812 C 1118.167969 278.34375 1123.320312 274.78125 1130.023438 272.246094 C 1132.113281 271.8125 1132.113281 271.8125 1139.011719 271.8125 "/><g clip-rule="nonzero" clip-path="url(#e31ea0cd39)"><path style=" stroke:none;fill-rule:evenodd;fill:#2866ed;fill-opacity:1;" d="M 447.101562 207.429688 L 347.53125 207.429688 C 340.652344 207.429688 335.085938 213.003906 335.085938 219.875 L 335.085938 394.121094 C 335.085938 401.003906 340.652344 406.570312 347.53125 406.570312 L 447.101562 406.570312 C 453.980469 406.570312 459.546875 401 459.546875 394.121094 L 459.546875 219.875 C 459.546875 213.003906 453.980469 207.429688 447.101562 207.429688 Z M 375.535156 219.875 L 419.097656 219.875 C 420.820312 219.875 422.207031 221.269531 422.207031 222.988281 C 422.207031 224.707031 420.820312 226.097656 419.097656 226.097656 L 375.535156 226.097656 C 373.808594 226.097656 372.421875 224.707031 372.421875 222.988281 C 372.421875 221.269531 373.808594 219.875 375.535156 219.875 Z M 397.316406 400.34375 C 392.160156 400.34375 387.980469 396.164062 387.980469 391.011719 C 387.980469 385.855469 392.160156 381.675781 397.316406 381.675781 C 402.46875 381.675781 406.648438 385.855469 406.648438 391.011719 C 406.648438 396.164062 402.46875 400.34375 397.316406 400.34375 Z M 447.101562 375.453125 L 347.53125 375.453125 L 347.53125 238.546875 L 447.101562 238.546875 Z M 447.101562 375.453125 "/></g><path style=" stroke:none;fill-rule:nonzero;fill:#2866ed;fill-opacity:1;" d="M 81.878906 209.15625 L 84.261719 209.140625 C 86.878906 209.128906 89.496094 209.140625 92.117188 209.152344 C 94 209.152344 95.886719 209.148438 97.769531 209.140625 C 102.875 209.128906 107.980469 209.136719 113.085938 209.152344 C 118.433594 209.164062 123.785156 209.15625 129.132812 209.15625 C 138.109375 209.152344 147.089844 209.164062 156.066406 209.183594 C 165.296875 209.203125 174.527344 209.207031 183.753906 209.199219 C 194.890625 209.191406 206.027344 209.191406 217.164062 209.207031 C 221.414062 209.210938 225.664062 209.210938 229.910156 209.207031 C 234.914062 209.203125 239.917969 209.210938 244.917969 209.230469 C 246.753906 209.234375 248.589844 209.234375 250.425781 209.230469 C 252.929688 209.226562 255.4375 209.234375 257.945312 209.25 L 260.136719 209.234375 C 264.847656 209.28125 268.335938 210.148438 272.652344 212.070312 C 274.460938 213.324219 274.460938 213.324219 275.773438 214.671875 L 277.113281 215.976562 C 279.792969 219.742188 281.582031 223.394531 282.109375 228.039062 C 282.21875 231.210938 282.222656 234.371094 282.1875 237.546875 C 282.1875 238.761719 282.1875 239.976562 282.1875 241.1875 C 282.1875 244.46875 282.167969 247.742188 282.144531 251.019531 C 282.125 254.453125 282.121094 257.886719 282.117188 261.320312 C 282.109375 267.808594 282.082031 274.300781 282.046875 280.792969 C 282.011719 288.183594 281.988281 295.578125 281.976562 302.972656 C 281.941406 318.171875 281.882812 333.375 281.808594 348.574219 C 278.277344 349.097656 274.882812 349.511719 271.3125 349.515625 L 268.785156 349.519531 L 266.203125 349.511719 L 263.578125 349.519531 L 261.066406 349.515625 L 258.785156 349.511719 C 256.835938 349.40625 256.835938 349.40625 254.339844 348.574219 L 254.339844 237.039062 L 86.207031 237.039062 L 86.207031 347.742188 C 79.648438 349.617188 79.648438 349.617188 76.164062 349.597656 L 73.898438 349.59375 L 71.589844 349.5625 L 69.269531 349.5625 C 65.371094 349.535156 61.753906 349.238281 57.90625 348.574219 C 57.828125 332.871094 57.769531 317.171875 57.734375 301.472656 C 57.71875 294.179688 57.695312 286.890625 57.65625 279.597656 C 57.621094 273.242188 57.601562 266.886719 57.59375 260.527344 C 57.589844 257.164062 57.578125 253.800781 57.554688 250.4375 C 57.535156 247.265625 57.523438 244.09375 57.53125 240.921875 C 57.53125 239.765625 57.523438 238.605469 57.511719 237.445312 C 57.4375 230.558594 57.894531 224.847656 61.238281 218.726562 C 63.035156 215.878906 64.9375 213.671875 67.851562 211.933594 C 72.648438 209.695312 76.617188 209.097656 81.878906 209.15625 "/><g clip-rule="nonzero" clip-path="url(#63fee269fb)"><path style=" stroke:none;fill-rule:nonzero;fill:#2866ed;fill-opacity:1;" d="M 40.734375 362.613281 L 43.558594 362.605469 L 46.675781 362.605469 L 49.976562 362.597656 C 53.007812 362.59375 56.039062 362.589844 59.070312 362.589844 C 62.335938 362.589844 65.605469 362.582031 68.871094 362.578125 C 76.015625 362.566406 83.164062 362.558594 90.308594 362.558594 C 94.765625 362.554688 99.226562 362.550781 103.6875 362.546875 C 116.03125 362.535156 128.378906 362.527344 140.722656 362.523438 L 152.746094 362.523438 C 165.652344 362.519531 178.558594 362.507812 191.464844 362.484375 C 204.710938 362.464844 217.957031 362.457031 231.199219 362.453125 C 238.640625 362.457031 246.078125 362.449219 253.515625 362.433594 C 259.851562 362.421875 266.183594 362.417969 272.519531 362.421875 C 275.75 362.429688 278.980469 362.425781 282.214844 362.414062 C 285.71875 362.402344 289.21875 362.410156 292.722656 362.417969 L 295.824219 362.398438 C 299.777344 362.421875 302.824219 362.488281 306.546875 363.894531 C 308.441406 365.21875 308.441406 365.21875 309.570312 366.753906 C 311.195312 372.183594 310.347656 378.246094 309.171875 383.6875 C 307.824219 388.46875 305.910156 392.285156 302.617188 396.015625 C 298.417969 400.003906 294.09375 402.898438 288.46875 404.339844 C 282.902344 405.257812 277.332031 405.292969 271.707031 405.285156 L 268.957031 405.289062 C 265.933594 405.292969 262.90625 405.296875 259.882812 405.292969 L 253.359375 405.300781 C 248.074219 405.308594 242.789062 405.3125 237.503906 405.3125 C 233.207031 405.3125 228.910156 405.3125 224.609375 405.316406 C 212.40625 405.324219 200.203125 405.328125 188 405.328125 L 184.015625 405.328125 C 173.359375 405.328125 162.699219 405.335938 152.042969 405.347656 C 141.082031 405.359375 130.121094 405.363281 119.164062 405.363281 C 113.015625 405.363281 106.871094 405.367188 100.722656 405.375 C 94.941406 405.382812 89.160156 405.382812 83.378906 405.375 C 81.261719 405.375 79.144531 405.378906 77.027344 405.382812 C 74.125 405.390625 71.226562 405.386719 68.328125 405.378906 L 65.808594 405.390625 C 58.214844 405.355469 50.28125 404.910156 43.539062 401.117188 C 39 398.175781 35.632812 394.839844 32.9375 390.191406 C 30.675781 384.996094 30.027344 380.160156 30.074219 374.53125 L 30.023438 372.433594 C 30.027344 370.523438 30.089844 368.765625 30.441406 366.886719 C 31.972656 364.792969 31.972656 364.792969 33.769531 363.554688 C 36.324219 362.703125 38.058594 362.617188 40.734375 362.613281 "/></g></g></svg>